PathFileType	4	(X/Y/Z)	TVC_9_BWA2_walk_RCNL2025.trc
DataRate	CameraRate	NumFrames	NumMarkers	Units	OrigDataRate	OrigDataStartFrame	OrigNumFrames
100	100	7	27	mm	100	274	364
Frame#	Time	R_Shoulder			L_Shoulder			C7			J_Notch			R_Elbow			L_Elbow			R_Wrist			L_Wrist			R_Asis			L_Asis			R_Psis			L_Psis			Sacral			Thoracic			Sternum			R_Thigh_Lateral			R_Knee_Lateral			R_Shank_Lateral			R_Ankle_Lateral			R_Heel			R_Toe			L_Thigh_Lateral			L_Knee_Lateral			L_Shank_Lateral			L_Ankle_Lateral			L_Heel			L_Toe		
		X1	Y1	Z1	X2	Y2	Z2	X3	Y3	Z3	X4	Y4	Z4	X5	Y5	Z5	X6	Y6	Z6	X7	Y7	Z7	X8	Y8	Z8	X9	Y9	Z9	X10	Y10	Z10	X11	Y11	Z11	X12	Y12	Z12	X13	Y13	Z13	X14	Y14	Z14	X15	Y15	Z15	X16	Y16	Z16	X17	Y17	Z17	X18	Y18	Z18	X19	Y19	Z19	X20	Y20	Z20	X21	Y21	Z21	X22	Y22	Z22	X23	Y23	Z23	X24	Y24	Z24	X25	Y25	Z25	X26	Y26	Z26	X27	Y27	Z27
274	2.73000000	-200.713226	1375.573975	212.956192	-206.846664	1363.866455	-181.204666	-264.234375	1431.607544	7.002807	-109.739777	1338.092041	26.261620	-192.091095	1097.361206	390.569885	-308.774902	1027.430420	-210.900848	21.576685	980.273926	339.101944	-240.995514	795.001160	-198.131622	-166.981491	935.894226	202.366394	-156.733353	928.667419	-105.523682	-358.093903	947.974792	94.756310	-354.341034	936.243591	-3.249784	-356.217468	942.109192	45.753263	-355.609283	1152.905884	30.985645	-49.756092	1148.314575	38.684513	-253.174759	531.390320	257.885468	-269.475250	450.214203	184.714767	-290.432434	291.133484	222.278519	-358.118225	75.178413	143.954254	-415.566162	68.096260	84.179169	-234.414902	47.635136	103.579613	-18.104485	605.569763	-153.465881	7.642362	481.749329	-103.329872	34.246494	345.468414	-160.026260	33.770245	111.690300	-102.372742	-17.623573	70.078743	-51.177532	175.761658	104.404205	-67.790154
275	2.74000000	-192.919357	1374.475220	212.340225	-198.049759	1362.937744	-181.835220	-255.887222	1430.413574	6.315631	-101.325760	1337.032349	25.841852	-181.651672	1098.067139	391.662140	-303.440796	1027.612305	-211.032990	34.557079	986.603027	339.038940	-240.383385	793.880341	-196.396576	-159.004242	935.382629	202.400345	-147.476456	927.136841	-105.625954	-349.508087	946.778198	93.589333	-345.372040	934.709778	-4.252893	-347.440063	940.743988	44.668220	-346.993561	1151.627319	29.722626	-41.430775	1147.141968	38.538349	-248.411682	531.178528	257.772827	-265.227051	450.117004	184.779114	-287.779419	291.266235	222.226471	-357.685852	76.037292	143.994339	-415.183105	69.512215	84.274605	-234.295273	47.571339	103.526291	-11.287854	602.011169	-155.068298	15.893753	479.843994	-103.854744	46.102482	344.092712	-160.641953	51.579876	110.236412	-102.997597	1.339208	67.397034	-51.667301	193.806030	106.531639	-68.993958
276	2.75000000	-185.165924	1373.313232	211.673401	-189.255310	1361.988281	-182.543884	-247.511169	1429.182373	5.544740	-92.867599	1335.962402	25.343922	-171.436249	1098.542480	392.485413	-297.835449	1027.769287	-211.449203	47.106018	992.504669	338.905136	-239.202133	792.922760	-195.161110	-150.954681	934.889709	202.363998	-138.179504	925.617310	-105.782784	-340.841736	945.545654	92.365227	-336.331177	933.148743	-5.311961	-338.586456	939.347198	43.526633	-338.307770	1150.314209	28.364109	-33.047577	1145.980469	38.278717	-243.285828	530.948669	257.645813	-260.759949	450.026642	184.823532	-284.930267	291.423523	222.187134	-357.199127	76.961594	144.086319	-414.758331	71.014061	84.450249	-234.128830	47.513130	103.512428	-4.484290	598.583618	-156.630035	24.117748	477.952789	-104.415955	56.944912	342.648743	-161.365845	67.143524	108.889259	-103.632126	17.915462	65.095245	-52.120605	209.500946	108.043968	-70.348206
277	2.76000000	-177.423492	1372.112671	210.949142	-180.467545	1361.031860	-183.332794	-239.094925	1427.931396	4.687905	-84.354683	1334.899048	24.758224	-161.446854	1098.796021	393.030762	-291.938721	1027.896973	-212.139145	59.232615	997.942963	338.699783	-237.366623	792.110504	-194.451645	-142.811707	934.420166	202.241089	-128.837326	924.139404	-105.997429	-332.092133	944.300110	91.095802	-327.219177	931.589111	-6.419782	-329.655655	937.944611	42.338010	-329.546082	1148.985962	26.923962	-24.587097	1144.853149	37.895588	-237.829132	530.703491	257.529449	-256.110870	449.952972	184.851105	-281.915863	291.619720	222.201706	-356.658539	77.951347	144.244324	-414.292389	72.604309	84.723099	-233.920425	47.462646	103.552094	2.315409	595.378967	-158.064194	32.272884	476.057037	-105.010422	66.783546	341.068207	-162.155426	80.482529	107.509560	-104.204750	32.108219	63.018742	-52.466949	222.908173	108.815674	-71.743393
278	2.77000000	-169.659302	1370.898193	210.160950	-171.686768	1360.081421	-184.203125	-230.626297	1426.678467	3.744263	-75.776108	1333.858765	24.076845	-151.683411	1098.840576	393.291962	-285.732269	1027.991821	-213.090469	70.946758	1002.882782	338.420242	-234.813805	791.421631	-194.281479	-134.554977	933.975952	202.015259	-119.444038	922.729004	-106.273476	-323.257782	943.064026	89.791595	-318.037750	930.058960	-7.570508	-320.647766	936.561493	41.110543	-320.703369	1147.662476	25.416384	-16.030207	1143.780640	37.383175	-232.087448	530.448303	257.440430	-251.316528	449.906311	184.864655	-278.775940	291.872528	222.306519	-356.065735	79.007721	144.479462	-413.785950	74.285583	85.104561	-233.677475	47.423592	103.656593	9.111456	592.437500	-159.303650	40.308388	474.131165	-105.635155	75.650261	339.288086	-162.957367	91.673485	105.988632	-104.654503	43.978626	61.040913	-52.651081	234.128769	108.764038	-73.072426
279	2.78000000	-161.838516	1369.693481	209.302505	-162.909164	1359.148926	-185.155151	-222.092651	1425.441650	2.714240	-67.121056	1332.855957	23.293732	-142.143906	1098.691895	393.265900	-279.199493	1028.050293	-214.289017	82.258579	1007.290375	338.062180	-231.508797	790.828735	-194.646919	-126.166054	933.557190	201.670776	-109.994370	921.406677	-106.614876	-314.338593	941.859192	88.461571	-308.789581	928.585205	-8.759761	-311.564087	935.222198	39.850905	-311.775513	1146.363037	23.855566	-7.359156	1142.780273	36.739754	-226.119247	530.191895	257.383057	-246.410309	449.896515	184.865860	-275.555420	292.201904	222.527344	-355.422638	80.132912	144.798416	-413.239349	76.060432	85.598625	-233.407883	47.400890	103.833282	15.906626	589.750366	-160.307724	48.174259	472.150452	-106.288048	83.584030	337.257050	-163.718002	100.844513	104.255653	-104.937202	53.643303	59.071907	-52.638237	243.300964	107.851547	-74.242340
280	2.79000000	-153.925598	1368.520752	208.367935	-154.127014	1358.245361	-186.188431	-213.481323	1424.238281	1.599435	-58.379280	1331.903809	22.404778	-132.824753	1098.369629	392.952820	-272.325775	1028.069946	-215.719162	93.177845	1011.134186	337.619995	-227.440376	790.305664	-195.531242	-117.629669	933.162476	201.193634	-100.485107	920.186890	-107.025879	-305.335938	940.705994	87.112915	-299.478577	927.192749	-9.984626	-302.407257	933.949371	38.564145	-302.759766	1145.106934	22.255325	1.441422	1141.865234	35.967197	-219.993256	529.947754	257.348480	-241.418671	449.932098	184.854767	-272.297852	292.627563	222.875595	-354.730469	81.330101	145.202240	-412.651917	77.931610	86.201088	-233.118286	47.400085	104.084320	22.711830	587.270081	-161.064926	55.831211	470.098450	-106.969131	90.627441	334.945160	-164.391006	108.170731	102.281227	-105.029755	61.270683	57.064327	-52.417168	250.598969	106.086006	-75.182625
